<?xml version="1.0" encoding="UTF-8"?>
<!DOCTYPE svg PUBLIC "-//W3C//DTD SVG 1.1//EN" "http://www.w3.org/Graphics/SVG/1.1/DTD/svg11.dtd">
<svg xmlns="http://www.w3.org/2000/svg" version="1.1" width="256px" height="256px" style="shape-rendering:geometricPrecision; text-rendering:geometricPrecision; image-rendering:optimizeQuality; fill-rule:evenodd; clip-rule:evenodd" xmlns:xlink="http://www.w3.org/1999/xlink">
<g><path style="opacity:1" fill="#dbe6eb" d="M -0.5,-0.5 C 84.8333,-0.5 170.167,-0.5 255.5,-0.5C 255.5,84.8333 255.5,170.167 255.5,255.5C 170.167,255.5 84.8333,255.5 -0.5,255.5C -0.5,170.167 -0.5,84.8333 -0.5,-0.5 Z"/></g>
<g><path style="opacity:1" fill="#497686" d="M 107.5,91.5 C 109.5,91.5 111.5,91.5 113.5,91.5C 113.665,95.1817 113.499,98.8484 113,102.5C 90.7314,110.435 76.3981,125.768 70,148.5C 68.2419,159.701 70.0752,170.201 75.5,180C 73.9156,185.758 71.7489,191.258 69,196.5C 62.2979,188.415 58.2979,179.081 57,168.5C 54.7988,130.212 71.6321,104.545 107.5,91.5 Z"/></g>
<g><path style="opacity:1" fill="#487685" d="M 151.5,91.5 C 176.19,96.3419 193.69,110.342 204,133.5C 210.131,150.949 209.797,168.282 203,185.5C 201.444,189.876 198.944,193.542 195.5,196.5C 193.034,191.066 190.701,185.566 188.5,180C 196.844,166.337 197.678,152.17 191,137.5C 182.704,121.037 169.87,109.704 152.5,103.5C 151.509,99.5546 151.176,95.5546 151.5,91.5 Z"/></g>
<g><path style="opacity:1" fill="#b3cbd2" d="M 139.5,25.5 C 140.499,64.3298 140.832,103.33 140.5,142.5C 148.019,142.175 155.352,142.508 162.5,143.5C 154.833,143.5 147.167,143.5 139.5,143.5C 139.5,104.167 139.5,64.8333 139.5,25.5 Z"/></g>
<g><path style="opacity:1" fill="#4a7988" d="M 139.5,25.5 C 139.5,64.8333 139.5,104.167 139.5,143.5C 147.167,143.5 154.833,143.5 162.5,143.5C 170.128,144.635 174.128,149.135 174.5,157C 174.343,159.981 173.343,162.648 171.5,165C 158.091,166.15 144.591,166.65 131,166.5C 118.167,166.333 105.333,166.167 92.5,166C 90.741,164.992 89.5743,163.492 89,161.5C 87.0547,154.676 88.888,149.176 94.5,145C 104.395,143.551 114.395,143.051 124.5,143.5C 124.333,103.499 124.5,63.4986 125,23.5C 127.513,19.7885 131.013,18.6218 135.5,20C 137.464,21.451 138.797,23.2843 139.5,25.5 Z"/></g>
<g><path style="opacity:1" fill="#487888" d="M 168.5,227.5 C 136.004,228.498 103.338,228.832 70.5,228.5C 69.4265,227.749 69.2599,226.749 70,225.5C 83.1754,211.136 90.3421,194.136 91.5,174.5C 95.8333,174.5 100.167,174.5 104.5,174.5C 105.209,197.052 106.542,197.052 108.5,174.5C 112.167,174.5 115.833,174.5 119.5,174.5C 119.887,182.699 121.387,190.699 124,198.5C 124.643,190.505 125.143,182.505 125.5,174.5C 129.5,174.5 133.5,174.5 137.5,174.5C 136.886,187.374 139.719,199.374 146,210.5C 143.208,198.758 142.041,186.758 142.5,174.5C 146.5,174.5 150.5,174.5 154.5,174.5C 154.271,193.477 158.938,211.143 168.5,227.5 Z"/></g>
<g><path style="opacity:1" fill="#4b7989" d="M 159.5,173.5 C 163.5,173.5 167.5,173.5 171.5,173.5C 173.655,193.491 181.488,210.824 195,225.5C 195.483,226.448 195.649,227.448 195.5,228.5C 187.472,228.831 179.472,228.498 171.5,227.5C 163.712,210.347 159.712,192.347 159.5,173.5 Z"/></g>
<g><path style="opacity:1" fill="#99b4c4" d="M 168.5,227.5 C 169.043,227.56 169.376,227.893 169.5,228.5C 136.336,229.83 103.336,229.83 70.5,228.5C 103.338,228.832 136.004,228.498 168.5,227.5 Z"/></g>
</svg>
