<?xml version="1.0" encoding="utf-8"?>
<svg version="1.0" xmlns="http://www.w3.org/2000/svg" width="500pt" height="5pt" viewBox="0 0 500.000000 500.000000" preserveAspectRatio="xMidYMid meet" xmlns:bx="https://boxy-svg.com">
  <defs>
    <bx:export>
      <bx:file format="svg" path="Unbetitelt.svg" units="pt"/>
    </bx:export>
  </defs>
  <rect x="0.505" y="-0.102" width="498.989" height="500.205" style="stroke: rgb(0, 0, 0); fill-rule: nonzero; paint-order: fill; fill: rgb(71, 121, 136);" rx="72.828" ry="72.828"/>
  <g transform="matrix(0.1, 0, 0, -0.1, -47.158257, 539.955688)" fill="#487988" stroke="none">
    <path d="M 2855.04 5545.3 C 2830.51 5531.4 2794.07 5498.85 2777.3 5475.53 C 2765.89 5458.81 2753.28 5436.8 2743.72 5192.74 C 2740.08 4966.18 2739.33 4518.77 2737.83 3616.78 C 2736.89 3190.55 2736.15 2907.76 2735.36 2804.57 C 2696.88 2802.31 2641.04 2801.62 2496.14 2799.65 C 2206.93 2796.43 2179.68 2792.15 2125.17 2766.41 C 2065.37 2735.8 2011.83 2678.21 1969.36 2598.87 C 1941.72 2541.97 1932.98 2452.87 1941.79 2382.05 C 1952.62 2309.82 1990.44 2230.54 2034.46 2198.58 L 2036.3 2197.35 L 2037.17 2196.92 L 2038.06 2196.48 L 2038.81 2196.11 C 2070.72 2181.89 2249.2 2176.65 2949.83 2176.65 C 3430.16 2176.65 3654.47 2175.51 3764.58 2183.98 C 3824.07 2189.15 3864.49 2201.2 3887.62 2215.51 L 3889.33 2216.63 L 3889.55 2216.81 L 3889.79 2217.02 L 3890.02 2217.21 L 3890.77 2217.84 L 3891.35 2218.33 C 3915.4 2240.35 3926.84 2263.56 3936.25 2277.74 C 3959.7 2318.18 3968.83 2352.64 3968.83 2432.65 C 3968.83 2519.11 3961.04 2546.84 3926.8 2615.84 C 3877.53 2705.78 3801.97 2767.32 3715.65 2789.48 C 3681.93 2796.04 3546.02 2801.63 3398.83 2801.65 L 3203.74 2801.65 L 3201.83 4074.79 L 3198.78 5427.07 L 3194.67 5432.43 L 3186.44 5443.16 L 3162.57 5474.28 C 3126.93 5517.01 3070.25 5551.74 3020.21 5565.17 C 2968.95 5575.89 2903.05 5568.38 2855.04 5545.3 Z" style="fill: rgb(255, 255, 255);"/>
    <path d="M 2239.4 3953.52 C 2180.68 3940.44 2041.2 3890.18 1971.8 3858.2 C 1793.28 3773.56 1647.99 3670.76 1496.27 3521.64 C 1292.89 3320.17 1169.37 3121.87 1087.22 2863.02 C 1039.01 2709.36 1024.64 2583.43 1030.45 2362.25 C 1038.13 2101.71 1070.84 1952.08 1162.89 1750.94 C 1185.4 1702.08 1223.18 1638.61 1255.69 1591.03 C 1272.2 1566.97 1289.37 1544.2 1302.39 1529.24 C 1309.79 1520.95 1320.68 1510.76 1327.16 1505.61 C 1332.27 1502.13 1342.42 1496.86 1348.06 1494.62 L 1352.56 1493.07 L 1354.93 1492.73 L 1355.41 1492.66 L 1355.95 1492.59 L 1356.63 1492.49 L 1357.94 1492.33 L 1360.55 1492.11 C 1372.19 1492.01 1393.31 1497.23 1401.75 1501.13 L 1402.5 1501.48 L 1410.31 1506.31 L 1413.33 1509.82 L 1415.45 1512.28 L 1416.79 1513.88 C 1430.55 1532 1544.68 1822.62 1556.83 1870.19 C 1568.86 1927.31 1565.55 1949.48 1508.33 2069.31 C 1438.54 2211.18 1421.59 2281.12 1423.43 2421.77 C 1422.35 2791.76 1645.05 3172.92 1994.76 3404.06 C 2096.82 3472.33 2157.74 3503.6 2266.76 3545.26 C 2313.98 3564.26 2366.91 3592.28 2381.07 3606.09 L 2383.32 3608.6 L 2384.35 3610.18 L 2384.82 3610.9 L 2385.24 3611.57 L 2386.2 3613.14 C 2398.79 3637.25 2413.14 3845.65 2408.03 3896.62 L 2407.63 3900.41 L 2406.96 3902.97 L 2406.81 3903.54 L 2406.58 3904.39 L 2405.95 3906.45 C 2402.59 3915.45 2392.23 3931.69 2385.52 3938.88 L 2383.15 3941.12 L 2381.61 3942.18 L 2380.59 3942.89 L 2379.82 3943.41 C 2374.06 3947.09 2362.38 3952.48 2356.37 3954.64 C 2346.63 3957.41 2331.21 3959.84 2319.15 3960.63 C 2296.89 3961.6 2265.18 3959.14 2239.4 3953.52 Z" style="fill: rgb(255, 255, 255);"/>
    <path d="M 3544.56 3943.73 C 3534.39 3924.63 3526.82 3858.05 3526.95 3802.34 C 3527.25 3747.76 3531.52 3682.58 3537.61 3659.63 L 3538.15 3657.69 L 3538.28 3657.38 L 3538.82 3656.13 L 3539.1 3655.47 C 3554.84 3622.74 3594.14 3592.5 3683.71 3554.41 C 3815.29 3502.03 3900.35 3454.95 3998.63 3379.38 C 4212.69 3217.39 4382.41 2988.7 4459.07 2757.06 C 4488.98 2668.29 4515.95 2516.84 4515.95 2439.14 C 4515.95 2287.11 4474.85 2136.78 4397.31 2013.67 C 4369.28 1963.29 4366.54 1937.86 4384.69 1875.2 C 4394.18 1844.78 4423.98 1763.52 4450.08 1694.27 C 4476.87 1625.83 4501.3 1559.51 4503.69 1551.35 L 4503.76 1551.1 L 4503.85 1550.87 C 4507.26 1542.58 4515.9 1528.38 4522.15 1521.04 L 4524.8 1518.24 L 4526.54 1516.94 L 4526.91 1516.66 L 4527.34 1516.34 L 4527.89 1515.94 L 4529.19 1515.02 C 4536.1 1510.64 4552.31 1504.31 4560.28 1502.51 L 4563.98 1501.99 L 4565.14 1502.01 L 4566.71 1502.04 L 4568 1502.06 L 4569.86 1502.15 C 4577.37 1502.88 4591 1506.45 4597.03 1508.86 L 4599.02 1509.71 L 4599.55 1510.03 L 4599.81 1510.18 L 4600.4 1510.53 L 4600.7 1510.71 L 4601.36 1511.1 C 4613.51 1518.84 4629.52 1534.46 4645.3 1552.85 C 4767.58 1694.59 4872.62 1960.33 4906.45 2213.4 C 4921.69 2332.18 4912.17 2642.79 4890.51 2744.23 C 4846.74 2938.64 4762.83 3133.56 4649.41 3298.11 C 4570.19 3413.03 4502.25 3515.16 4230.66 3717.12 C 4227.93 3719.15 4175.01 3755.9 4171.45 3758.1 C 4164.16 3762.58 3937.5 3888.68 3829.15 3927.3 C 3774.59 3946.65 3720.5 3962.37 3679.48 3970.46 C 3645.5 3975.65 3565.17 3970.43 3565.17 3970.43 L 3545.76 3945.75 L 3545.44 3945.21 L 3544.92 3944.35 L 3544.56 3943.73 Z" style="fill: rgb(255, 255, 255);"/>
    <path d="M 3690.23 1908.33 L 3566.25 1903.56 L 3567.02 1883.58 L 3573.02 1726.53 C 3582.16 1505.17 3624.68 1268.38 3692.01 1059.08 C 3725.18 958.608 3810.9 736.94 3837.35 685.935 L 3859 645.347 L 4111 645.347 C 4250.41 645.356 4364.79 650.9 4379.94 657.992 C 4388.73 663.29 4398.21 673.499 4401.97 683.533 L 4402.08 683.817 L 4402.14 684.127 C 4404.1 693.9 4401.91 708.108 4396.26 720.547 C 4385.74 742.057 4361.1 774.356 4319.33 824.193 C 4212.05 952.219 4124.35 1087.23 4052.92 1231.22 C 3973.46 1391.9 3926.35 1536.24 3893.68 1712.93 C 3879.66 1791.03 3865.53 1864.72 3863.59 1877.36 C 3861.12 1888.06 3854.45 1899.72 3847.1 1905.91 L 3846.87 1906.1 L 3846.61 1906.26 C 3838.46 1911.18 3825.55 1913.65 3815.34 1913.28 C 3803.64 1912.3 3746.88 1909.32 3690.23 1908.33 Z" style="fill: rgb(255, 255, 255);"/>
    <path d="M 2040.66 1898.11 C 2028.06 1894.81 2014.66 1884.96 2007.33 1868.57 C 2002.93 1855.29 2000.24 1833.67 1997.21 1799.37 C 1975.64 1552.51 1887.95 1275.65 1764.86 1065.69 C 1723.44 994.572 1616.37 848.916 1559.96 785.648 C 1532.33 752.999 1522.98 729.282 1524.22 700.746 L 1528.92 650.662 L 2650.1 647.614 C 2953.63 647.114 3229.18 647.364 3428.6 648.239 C 3528.31 648.677 3609.06 649.27 3664.72 650.005 C 3692.59 650.375 3714.3 650.782 3728.94 651.218 C 3736.31 651.44 3742.17 651.682 3746.06 651.928 C 3748.13 652.063 3750.28 652.261 3751.62 652.434 C 3752.6 652.58 3754.77 653.063 3755.78 653.327 C 3756.87 653.705 3759.46 654.869 3760.97 655.752 L 3761.52 656.081 L 3761.81 656.311 L 3761.99 656.463 C 3763.44 657.681 3766.42 661.048 3767.8 663.229 L 3768.5 664.392 L 3768.68 665.116 L 3768.82 665.668 C 3769.7 669.453 3769.62 675.976 3769.18 678.356 L 3768.78 680.078 L 3767.95 681.704 C 3691.09 832.423 3594.56 1037.34 3579.98 1080.3 C 3497.37 1312.88 3460.92 1499.32 3436.07 1810.19 L 3428.64 1905.61 L 3149.72 1905.61 L 3155.14 1643.18 C 3161.22 1363.19 3177.05 1273.9 3218.09 1146.28 C 3181.08 1217.28 3169.08 1245.59 3149.76 1294.91 C 3109.28 1398.04 3074.93 1589.39 3057.05 1810.43 L 3048.4 1905.61 L 2911.13 1905.61 C 2853.54 1905.61 2821.88 1905.21 2804.22 1902.15 C 2793.76 1900 2783.53 1894.86 2777.94 1889.66 L 2777.71 1889.45 L 2777.53 1889.22 C 2772.38 1882.71 2768.8 1872.57 2767.36 1866.63 C 2765.27 1852.76 2758.16 1741.75 2752.16 1618.61 C 2746.5 1504.54 2745.04 1432.94 2747.61 1389.59 C 2721.58 1468.84 2694.5 1605.91 2682.03 1732.69 C 2673.07 1818.42 2670.49 1863.23 2652.67 1886.16 L 2652.48 1886.41 L 2652.28 1886.59 C 2629.67 1907.61 2591.98 1905.61 2526.13 1905.61 C 2484.37 1905.61 2454.38 1904.82 2434.66 1902.89 C 2424.41 1901.86 2414.89 1900.08 2408.79 1898.19 C 2400.79 1894.95 2392.32 1887.46 2388.98 1881.83 L 2388.3 1880.55 L 2388.16 1880.03 L 2388.01 1879.5 L 2387.87 1879.01 C 2385.58 1870.57 2374.27 1781.94 2363.25 1683.79 C 2358.1 1636.77 2353.36 1599.13 2348.87 1569.94 C 2345.76 1601.31 2342.05 1639.87 2338.05 1681.43 C 2329.02 1786.72 2317.75 1878.72 2313.6 1887.34 L 2312.36 1889.69 L 2311.65 1890.31 L 2310.94 1890.93 L 2310.34 1891.45 C 2303.72 1896.37 2283.39 1901.01 2261.63 1902.24 C 2240.77 1903.35 2212.91 1903.99 2184.22 1904.11 C 2126.88 1904.36 2062.76 1902.28 2040.66 1898.11 Z" style="fill: rgb(255, 255, 255);"/>
  </g>
</svg>